# xmcd CD database file
#
# Track frame offsets:
#	182
#	14030
#	28965
#	44660
#	59950
#	75997
#	90750
#	104295
#	119930
#	135535
#	150532
#	165365
#	180782
#	196247
#	211200
#	226767
#
# Disc length: 3216 seconds
#
# Revision: 0
# Processed by: cddbd v1.5.2PL0 Copyright (c) Steve Scherf et al.
# Submitted via: CDex 1.70beta2
#
DISCID=cd0c8e10
DTITLE=Hawkins Erskine - The Complete (Jazz Tribune 68)
DYEAR=1995
DGENRE=Jazz
TTITLE0=Riff Time
TTITLE1=I Know A Secret
TTITLE2=S'posin'
TTITLE3=Tonight You Belong To Me
TTITLE4=Keep Cool, Fool
TTITLE5=No Use Squawkin'
TTITLE6=Who's Beatin' My Time With You?
TTITLE7=Uncle Bud
TTITLE8=Blackout
TTITLE9=Blue Sea
TTITLE10=I Love You Truly
TTITLE11=Shipyard Rumble
TTITLE12=So Long Shorty
TTITLE13=I'm In A Low Down Groove
TTITLE14=Night After Night
TTITLE15=Hey Doc!
EXTD=YEAR: 1995
EXTT0=
EXTT1=
EXTT2=
EXTT3=
EXTT4=
EXTT5=
EXTT6=
EXTT7=
EXTT8=
EXTT9=
EXTT10=
EXTT11=
EXTT12=
EXTT13=
EXTT14=
EXTT15=
PLAYORDER=
